{
  "accessors": [
    {
      "bufferView": 2,
      "componentType": 5126,
      "count": 16464,
      "max": [
        0.07193383574485779,
        -3.8660852297311976e-11,
        0.02526729553937912
      ],
      "min": [
        -0.07193382829427719,
        -0.04536613076925278,
        -0.02526729553937912
      ],
      "type": "VEC3"
    },
    {
      "bufferView": 2,
      "byteOffset": 197568,
      "componentType": 5126,
      "count": 16464,
      "max": [
        0.999838650226593,
        0.999980628490448,
        0.9999821782112122
      ],
      "min": [
        -0.999874472618103,
        -0.999983549118042,
        -0.999951958656311
      ],
      "type": "VEC3"
    },
    {
      "bufferView": 1,
      "componentType": 5126,
      "count": 16464,
      "max": [
        0.9945809841156006,
        0.9999880194664001
      ],
      "min": [
        0.0005818550125695765,
        6.197879702085629e-05
      ],
      "type": "VEC2"
    },
    {
      "bufferView": 0,
      "componentType": 5125,
      "count": 87117,
      "type": "SCALAR"
    },
    {
      "bufferView": 2,
      "byteOffset": 395136,
      "componentType": 5126,
      "count": 3826,
      "max": [
        0.07148617506027222,
        -0.0008828431600704789,
        -0.023790422827005386
      ],
      "min": [
        -0.061523567885160446,
        -0.04484359547495842,
        -0.02526729553937912
      ],
      "type": "VEC3"
    },
    {
      "bufferView": 2,
      "byteOffset": 441048,
      "componentType": 5126,
      "count": 3826,
      "max": [
        0.9964397549629211,
        0.999308705329895,
        0.877949059009552
      ],
      "min": [
        -0.9980522394180298,
        -0.9997410178184509,
        -0.999951958656311
      ],
      "type": "VEC3"
    },
    {
      "bufferView": 1,
      "byteOffset": 131712,
      "componentType": 5126,
      "count": 3826,
      "max": [
        0.0,
        0.0
      ],
      "min": [
        0.0,
        0.0
      ],
      "type": "VEC2"
    },
    {
      "bufferView": 0,
      "byteOffset": 348468,
      "componentType": 5125,
      "count": 20973,
      "type": "SCALAR"
    }
  ],
  "asset": {
    "extras": {
      "author": "emm (https://sketchfab.com/edemaistre)",
      "license": "CC-BY-4.0 (http://creativecommons.org/licenses/by/4.0/)",
      "source": "https://sketchfab.com/3d-models/birthday-cake-2-d29892a06fef40a592dcec3bd13d7d2b",
      "title": "Birthday cake (2)"
    },
    "generator": "Sketchfab-12.66.0",
    "version": "2.0"
  },
  "bufferViews": [
    {
      "buffer": 0,
      "byteLength": 432360,
      "name": "floatBufferViews",
      "target": 34963
    },
    {
      "buffer": 0,
      "byteLength": 162320,
      "byteOffset": 432360,
      "byteStride": 8,
      "name": "floatBufferViews",
      "target": 34962
    },
    {
      "buffer": 0,
      "byteLength": 486960,
      "byteOffset": 594680,
      "byteStride": 12,
      "name": "floatBufferViews",
      "target": 34962
    }
  ],
  "buffers": [
    {
      "byteLength": 1081640,
      "uri": "scene.bin"
    }
  ],
  "extensionsUsed": [
    "KHR_materials_unlit"
  ],
  "images": [
    {
      "uri": "textures/material_1_baseColor.png"
    }
  ],
  "materials": [
    {
      "doubleSided": true,
      "extensions": {
        "KHR_materials_unlit": {}
      },
      "name": "material_1",
      "pbrMetallicRoughness": {
        "baseColorTexture": {
          "index": 0
        },
        "metallicFactor": 0.0
      }
    }
  ],
  "meshes": [
    {
      "name": "Object_0",
      "primitives": [
        {
          "attributes": {
            "NORMAL": 1,
            "POSITION": 0,
            "TEXCOORD_0": 2
          },
          "indices": 3,
          "material": 0,
          "mode": 4
        }
      ]
    },
    {
      "name": "Object_1",
      "primitives": [
        {
          "attributes": {
            "NORMAL": 5,
            "POSITION": 4,
            "TEXCOORD_0": 6
          },
          "indices": 7,
          "material": 0,
          "mode": 4
        }
      ]
    }
  ],
  "nodes": [
    {
      "children": [
        1
      ],
      "matrix": [
        0.9999551773071289,
        -0.009467734023928642,
        -2.1022592608785123e-18,
        0.0,
        0.0,
        2.220446049250313e-16,
        -1.0,
        0.0,
        0.009467734023928642,
        0.9999551773071289,
        2.2203465228790107e-16,
        0.0,
        1.008329184037926e-10,
        8.107521876077328e-10,
        1.800231491894639e-25,
        1.0
      ],
      "name": "Sketchfab_model"
    },
    {
      "children": [
        2,
        3
      ],
      "name": "birthday-cake-3.obj.cleaner.materialmerger.gles"
    },
    {
      "mesh": 0,
      "name": "Object_2"
    },
    {
      "mesh": 1,
      "name": "Object_3"
    }
  ],
  "samplers": [
    {
      "magFilter": 9729,
      "minFilter": 9987,
      "wrapS": 10497,
      "wrapT": 10497
    }
  ],
  "scene": 0,
  "scenes": [
    {
      "name": "Sketchfab_Scene",
      "nodes": [
        0
      ]
    }
  ],
  "textures": [
    {
      "sampler": 0,
      "source": 0
    }
  ]
}
